<svg xmlns="http://www.w3.org/2000/svg" width="24" height="17" viewBox="0 0 24 17">
    <path fill="#fff" d="M1541.359 52.627l7.306-7.292a1.173 1.173 0 0 1 .335.824v14.682a1.171 1.171 0 0 1-.3.787zm-15.984-7.327a1.1 1.1 0 0 1 .751-.3h21.75a1.1 1.1 0 0 1 .751.3L1537 54.659zm-.071 16.327a1.171 1.171 0 0 1-.3-.787V46.159a1.172 1.172 0 0 1 .335-.824l7.306 7.292zm11.7-4.651l3.051-3.045 8.6 7.749a1.1 1.1 0 0 1-.771.319h-21.75a1.1 1.1 0 0 1-.771-.319l8.6-7.749z" transform="translate(-1525 -45)"/>
</svg>
