<svg xmlns="http://www.w3.org/2000/svg" width="19" height="17" viewBox="0 0 19 17">
    <path fill="#e5e5e5" d="M659.109 1472.362h-12.1l-2.411 2.381a.894.894 0 0 1-.63.257h-.011a.9.9 0 0 1-.619-.256l-.01-.012a.925.925 0 0 1-.1-.118c-.011-.017-.019-.037-.03-.054a.783.783 0 0 1-.052-.1c-.007-.016-.01-.034-.016-.05a.823.823 0 0 1-.036-.115.869.869 0 0 1-.018-.177v-1.759h-1.186a.885.885 0 0 1-.89-.879v-12.6a.885.885 0 0 1 .891-.879h17.219a.885.885 0 0 1 .891.879v12.6a.885.885 0 0 1-.892.882z" transform="translate(-641 -1458)"/>
</svg>
