<svg data-name="Layer 1" xmlns="http://www.w3.org/2000/svg" viewBox="0 0 512 512"><path d="M256 489.24a5.69 5.69 0 01-4.13-1.78L41.15 265A141.37 141.37 0 010 165C0 86.56 63.8 22.76 142.22 22.76A141.94 141.94 0 01256 79.71a141.94 141.94 0 01113.78-57C448.2 22.76 512 86.56 512 165a141.38 141.38 0 01-41.19 100L260.13 487.47a5.69 5.69 0 01-4.13 1.77zM142.22 34.13C70.07 34.13 11.38 92.83 11.38 165a130.09 130.09 0 0037.9 92l.08.09L256 475.28l206.63-218.15a130.18 130.18 0 0038-92.16c0-72.14-58.69-130.84-130.84-130.84a130.66 130.66 0 00-109 58.58 5.9 5.9 0 01-9.48 0 130.66 130.66 0 00-109.09-58.58z" fill="#898989"/></svg>